<svg width="323" height="286" viewBox="0 0 323 286" fill="none" xmlns="http://www.w3.org/2000/svg">
<path d="M104 132C104 96.1015 133.101 67 169 67H258C293.899 67 323 96.1015 323 132V286H169C133.101 286 104 256.899 104 221V132Z" fill="#FCE476"/>
<path d="M0 0H165C215.81 0 257 41.1898 257 92V165C257 215.81 215.81 257 165 257H92C41.1898 257 0 215.81 0 165V0Z" fill="#FCE475" fill-opacity="0.33"/>
<g clip-path="url(#clip0_1_773)">
<path d="M162 275C227.722 275 281 271.899 281 268.074C281 264.248 227.722 261.147 162 261.147C96.2781 261.147 43 264.248 43 268.074C43 271.899 96.2781 275 162 275Z" fill="#F5F5F5"/>
<path d="M102.166 265.302L171.581 259.257C176.276 258.847 179.78 254.686 179.369 250.005L164.897 84.9237C164.486 80.2429 160.312 76.7491 155.617 77.1591L86.2019 83.2043C81.5067 83.6143 78.0022 87.775 78.4134 92.4558L92.8795 257.531C93.2907 262.212 97.4642 265.706 102.159 265.296L102.166 265.302Z" fill="#407BFF"/>
<path d="M83.6241 141.203C84.9621 141.087 85.9564 139.9 85.8398 138.572L83.931 116.771C83.8144 115.437 82.6237 114.446 81.2919 114.562C79.9539 114.679 78.9596 115.866 79.0762 117.194L80.985 138.994C81.1016 140.328 82.2923 141.319 83.6241 141.203V141.203Z" fill="#407BFF"/>
<path d="M168.402 124.003L169.252 123.929C170.248 123.842 170.985 122.967 170.897 121.974L169.73 108.673C169.643 107.68 168.765 106.946 167.769 107.033L166.919 107.107C165.923 107.194 165.186 108.069 165.273 109.062L166.44 122.362C166.527 123.355 167.406 124.09 168.402 124.003Z" fill="#263238"/>
<path d="M171.209 146.273L170.353 146.347C169.356 146.434 168.479 145.7 168.392 144.706L167.224 131.4C167.137 130.407 167.873 129.532 168.87 129.445L169.726 129.37C170.722 129.283 171.6 130.017 171.687 131.011L172.855 144.317C172.942 145.311 172.206 146.186 171.209 146.273Z" fill="#263238"/>
<path d="M103.62 265.173L173.035 259.128C177.73 258.718 181.235 254.558 180.824 249.877L166.358 84.8013C165.946 80.1205 161.773 76.6268 157.078 77.0367L87.6626 83.082C82.9674 83.4919 79.4629 87.6526 79.8741 92.3334L94.3402 257.409C94.7514 262.09 98.9249 265.583 103.62 265.173V265.173Z" fill="#263238"/>
<path opacity="0.4" d="M96.7891 254.888L177.976 247.815C178.86 247.735 179.51 246.964 179.437 246.083L165.676 89.0721C165.597 88.191 164.823 87.5425 163.939 87.6159L82.7465 94.6891C81.8627 94.7686 81.2121 95.5396 81.2857 96.4206L95.046 253.432C95.1258 254.313 95.8991 254.961 96.7829 254.888H96.7891Z" fill="#407BFF"/>
<path opacity="0.3" d="M153.217 88.552L143.017 250.856L126.047 252.336L136.253 90.0266L153.217 88.552Z" fill="#407BFF"/>
<path opacity="0.2" d="M131.387 83.346L114.053 84.8548C113.651 84.8898 113.354 85.2429 113.389 85.6435L113.451 86.3445C113.486 86.7451 113.84 87.0415 114.242 87.0065L131.576 85.4977C131.977 85.4627 132.275 85.1096 132.24 84.709L132.178 84.008C132.143 83.6074 131.789 83.311 131.387 83.346Z" fill="white"/>
<path d="M211.149 103.457C204.668 103.371 199.199 107.765 197.659 113.724H125.022C120.019 113.724 115.969 117.769 115.969 122.749V154.114C115.969 159.1 120.019 163.139 125.022 163.139H142.741C144.741 163.139 146.662 163.934 148.074 165.341L159.52 176.753C162.466 179.69 167.241 179.69 170.194 176.753L181.64 165.341C183.058 163.928 184.973 163.139 186.973 163.139H204.692C209.695 163.139 213.745 159.1 213.745 154.114V130.575C220.134 129.266 224.903 123.545 224.707 116.741C224.492 109.453 218.465 103.549 211.155 103.451L211.149 103.457Z" fill="url(#paint0_linear_1_773)"/>
<path d="M210.965 129.486C217.795 129.486 223.332 123.966 223.332 117.157C223.332 110.348 217.795 104.828 210.965 104.828C204.135 104.828 198.598 110.348 198.598 117.157C198.598 123.966 204.135 129.486 210.965 129.486Z" fill="white"/>
<path d="M128.311 143.228C128.815 143.54 129.882 143.889 130.686 143.889C131.49 143.889 131.877 143.608 131.877 143.155C131.877 142.702 131.595 142.47 130.57 142.127C128.716 141.521 128.023 140.518 128.029 139.472C128.029 137.801 129.441 136.553 131.65 136.553C132.693 136.553 133.614 136.798 134.16 137.073L133.675 138.976C133.277 138.768 132.497 138.474 131.748 138.474C131.073 138.474 130.686 138.743 130.686 139.19C130.686 139.637 131.042 139.839 132.129 140.218C133.817 140.793 134.529 141.656 134.541 142.953C134.541 144.611 133.246 145.835 130.693 145.835C129.533 145.835 128.489 145.572 127.808 145.211L128.311 143.241V143.228Z" fill="white"/>
<path d="M144.612 142.788C144.612 143.944 144.649 144.899 144.686 145.633H142.286L142.157 144.379H142.102C141.752 144.929 140.924 145.835 139.328 145.835C137.518 145.835 136.198 144.709 136.198 141.974V136.749H138.972V141.521C138.972 142.818 139.389 143.602 140.365 143.602C141.12 143.602 141.562 143.082 141.74 142.629C141.808 142.47 141.838 142.262 141.838 142.041V136.749H144.612V142.782V142.788Z" fill="white"/>
<path d="M146.761 145.633C146.797 145.046 146.834 143.987 146.834 142.978V132.747H149.602V137.807H149.639C150.167 137.042 151.094 136.547 152.327 136.547C154.469 136.547 156.022 138.309 156.004 141.032C156.004 144.232 153.972 145.829 151.928 145.829C150.885 145.829 149.885 145.443 149.265 144.391H149.228L149.111 145.627H146.761V145.633ZM149.602 141.864C149.602 142.041 149.621 142.207 149.651 142.347C149.835 143.082 150.474 143.663 151.284 143.663C152.462 143.663 153.193 142.751 153.193 141.154C153.193 139.771 152.573 138.682 151.29 138.682C150.529 138.682 149.842 139.239 149.664 140.047C149.627 140.206 149.608 140.377 149.608 140.555V141.864H149.602Z" fill="white"/>
<path d="M157.71 143.228C158.213 143.54 159.281 143.889 160.085 143.889C160.889 143.889 161.276 143.608 161.276 143.155C161.276 142.702 160.993 142.47 159.968 142.127C158.115 141.521 157.421 140.518 157.428 139.472C157.428 137.801 158.839 136.553 161.049 136.553C162.092 136.553 163.013 136.798 163.559 137.073L163.074 138.976C162.675 138.768 161.896 138.474 161.147 138.474C160.472 138.474 160.085 138.743 160.085 139.19C160.085 139.637 160.441 139.839 161.527 140.218C163.215 140.793 163.927 141.656 163.939 142.953C163.939 144.611 162.644 145.835 160.091 145.835C158.931 145.835 157.888 145.572 157.207 145.211L157.71 143.241V143.228Z" fill="white"/>
<path d="M172.311 145.407C171.814 145.639 170.881 145.823 169.831 145.823C166.953 145.823 165.118 144.067 165.118 141.277C165.118 138.682 166.898 136.559 170.212 136.559C170.942 136.559 171.746 136.694 172.323 136.908L171.894 138.958C171.562 138.811 171.071 138.676 170.341 138.676C168.874 138.676 167.935 139.71 167.947 141.166C167.947 142.8 169.046 143.663 170.384 143.663C171.047 143.663 171.556 143.547 171.98 143.375L172.305 145.413L172.311 145.407Z" fill="white"/>
<path d="M173.833 139.68C173.833 138.376 173.809 137.514 173.759 136.749H176.141L176.239 138.395H176.307C176.767 137.098 177.847 136.553 178.712 136.553C178.97 136.553 179.099 136.559 179.302 136.602V139.196C179.087 139.153 178.866 139.117 178.553 139.117C177.534 139.117 176.84 139.655 176.656 140.518C176.62 140.695 176.607 140.909 176.607 141.13V145.621H173.833V139.667V139.68Z" fill="white"/>
<path d="M183.567 134.283C183.567 135.054 183.003 135.66 182.076 135.66C181.149 135.66 180.633 135.048 180.633 134.283C180.633 133.494 181.21 132.9 182.1 132.9C182.99 132.9 183.555 133.494 183.567 134.283V134.283ZM180.713 145.633V136.749H183.487V145.633H180.713Z" fill="white"/>
<path d="M185.629 145.633C185.666 145.046 185.703 143.987 185.703 142.978V132.747H188.471V137.807H188.508C189.036 137.042 189.962 136.547 191.196 136.547C193.338 136.547 194.891 138.309 194.872 141.032C194.872 144.232 192.841 145.829 190.797 145.829C189.754 145.829 188.753 145.443 188.133 144.391H188.097L187.98 145.627H185.629V145.633ZM188.471 141.864C188.471 142.041 188.489 142.207 188.52 142.347C188.704 143.082 189.343 143.663 190.153 143.663C191.331 143.663 192.061 142.751 192.061 141.154C192.061 139.771 191.442 138.682 190.159 138.682C189.398 138.682 188.71 139.239 188.532 140.047C188.496 140.206 188.477 140.377 188.477 140.555V141.864H188.471Z" fill="white"/>
<path d="M198.794 142.078C198.874 143.222 200.016 143.767 201.305 143.767C202.244 143.767 203.011 143.644 203.753 143.388L204.128 145.254C203.207 145.627 202.096 145.817 200.899 145.817C197.88 145.817 196.149 144.067 196.149 141.295C196.149 139.037 197.561 136.541 200.642 136.541C203.526 136.541 204.619 138.78 204.619 140.977C204.619 141.46 204.57 141.864 204.521 142.072H198.794V142.078ZM202.047 140.187C202.047 139.521 201.753 138.389 200.494 138.389C199.322 138.389 198.85 139.453 198.776 140.187H202.047Z" fill="white"/>
<path d="M216.274 121.024L214.985 119.592V116.055C214.985 114.146 213.647 112.562 211.861 112.152V111.656C211.861 111.216 211.566 110.812 211.131 110.732C210.56 110.628 210.069 111.063 210.069 111.613V112.146C208.283 112.556 206.945 114.146 206.945 116.049V119.586L205.656 121.018C205.466 121.232 205.613 121.574 205.908 121.574H216.016C216.305 121.574 216.458 121.232 216.268 121.018L216.274 121.024Z" fill="#232323"/>
<path d="M212.303 122.248V122.272C212.303 122.792 212.008 123.288 211.523 123.483C210.56 123.875 209.633 123.178 209.633 122.266V122.248H212.303V122.248Z" fill="#232323"/>
</g>
<defs>
<linearGradient id="paint0_linear_1_773" x1="170.335" y1="97.6811" x2="170.335" y2="147.934" gradientUnits="userSpaceOnUse">
<stop stop-color="#CFC72F"/>
<stop offset="1" stop-color="#D69F25"/>
</linearGradient>
<clipPath id="clip0_1_773">
<rect width="238" height="198" fill="white" transform="translate(43 77)"/>
</clipPath>
</defs>
</svg>
