<svg width="323" height="286" viewBox="0 0 323 286" fill="none" xmlns="http://www.w3.org/2000/svg">
<path d="M94.9536 26.1452C94.9698 26.1856 94.9908 26.2212 95.0183 26.2519C95.0458 26.2826 95.0749 26.3085 95.1088 26.3295C95.1412 26.3505 95.1767 26.3667 95.2139 26.3764C95.2511 26.3877 95.2883 26.391 95.3255 26.3894C95.3805 26.3877 95.4258 26.3764 95.4613 26.3554C95.4969 26.336 95.5244 26.3085 95.5454 26.2762C95.5648 26.2438 95.5794 26.2066 95.5858 26.163C95.5923 26.1193 95.5955 26.0757 95.5939 26.0288C95.5923 25.9819 95.5875 25.935 95.5778 25.8848C95.5697 25.8363 95.56 25.7894 95.5487 25.7442C95.5341 25.7781 95.5147 25.8072 95.4904 25.8347C95.4662 25.8622 95.4387 25.8848 95.408 25.9043C95.3772 25.9237 95.3417 25.9382 95.3045 25.9495C95.2673 25.9608 95.2252 25.9673 95.1816 25.9689C95.0959 25.9722 95.015 25.9608 94.9407 25.9334C94.8663 25.9059 94.7984 25.8671 94.7369 25.8169C94.6771 25.7668 94.6253 25.707 94.5817 25.6391C94.538 25.5711 94.5057 25.4968 94.483 25.4159C94.4701 25.3723 94.462 25.3254 94.4572 25.2801C94.4523 25.2332 94.4539 25.1879 94.4604 25.1426C94.4669 25.0974 94.4798 25.0553 94.4976 25.0149C94.517 24.9745 94.5429 24.9389 94.5784 24.9082C94.614 24.8774 94.6577 24.8516 94.711 24.8322C94.7644 24.8128 94.8291 24.8014 94.9035 24.7982C94.9908 24.795 95.07 24.8047 95.1412 24.8273C95.2123 24.85 95.2754 24.8807 95.332 24.9211C95.3886 24.9615 95.4387 25.01 95.4824 25.065C95.526 25.12 95.5648 25.1782 95.5972 25.2413C95.6295 25.3043 95.6586 25.3674 95.6829 25.4337C95.7071 25.4984 95.7265 25.5631 95.7443 25.6229C95.767 25.7037 95.7847 25.783 95.7977 25.8622C95.8106 25.9398 95.8171 26.0142 95.8171 26.0854C95.8171 26.1565 95.809 26.2212 95.7928 26.281C95.7767 26.3408 95.7524 26.3942 95.7168 26.4379C95.6812 26.4815 95.6344 26.5187 95.5778 26.5446C95.5195 26.5705 95.45 26.5866 95.3659 26.5882C95.2964 26.5915 95.2301 26.5834 95.1654 26.5656C95.1007 26.5478 95.0409 26.5203 94.9859 26.4831C94.931 26.446 94.8808 26.3991 94.8372 26.3425C94.7935 26.2859 94.7579 26.2212 94.7288 26.1468L94.952 26.1387L94.9536 26.1452ZM95.1622 25.7717C95.2188 25.77 95.2673 25.7571 95.3061 25.7361C95.3449 25.7151 95.374 25.686 95.395 25.6504C95.4161 25.6148 95.4274 25.5728 95.429 25.5259C95.4322 25.479 95.4258 25.4272 95.4112 25.3739C95.3967 25.3189 95.374 25.2688 95.3449 25.2235C95.3158 25.1782 95.2818 25.1378 95.2414 25.1054C95.201 25.0731 95.1573 25.0472 95.1072 25.0294C95.0571 25.0117 95.0053 25.0036 94.9487 25.0068C94.8938 25.0084 94.8485 25.0214 94.8113 25.0424C94.7741 25.0634 94.745 25.0925 94.7256 25.1281C94.7062 25.1637 94.6949 25.2041 94.6916 25.251C94.6884 25.2979 94.6949 25.3464 94.7094 25.3981C94.724 25.4515 94.745 25.5016 94.7725 25.5485C94.8 25.5954 94.8323 25.6358 94.8711 25.6698C94.9099 25.7037 94.9536 25.7296 95.0021 25.749C95.0506 25.7684 95.104 25.7765 95.1622 25.7733V25.7717Z" fill="white"/>
<path d="M104 132C104 96.1015 133.101 67 169 67H258C293.899 67 323 96.1015 323 132V286H169C133.101 286 104 256.899 104 221V132Z" fill="#FCE476"/>
<path d="M0 0H165C215.81 0 257 41.1898 257 92V165C257 215.81 215.81 257 165 257H92C41.1898 257 0 215.81 0 165V0Z" fill="#FCE475" fill-opacity="0.33"/>
<g clip-path="url(#clip0_1_989)">
<path d="M273.04 96.1203C273.692 95.2559 274.585 95.1287 275.566 94.9698C275.724 94.9444 275.693 94.7219 275.566 94.6774C274.483 94.3151 273.382 95.1287 272.844 95.9996C272.761 96.1267 272.958 96.2284 273.04 96.114V96.1203Z" fill="#303030"/>
<path d="M272.856 96.1457C275.864 95.3639 278.738 96.756 279.466 99.985C280.119 102.877 279.093 106.265 275.851 106.748C275.648 106.78 275.705 107.091 275.895 107.091C279.447 107.174 280.562 102.686 279.884 99.8642C279.156 96.8386 275.807 94.2643 272.755 95.9042C272.622 95.9741 272.717 96.1775 272.856 96.1394V96.1457Z" fill="#303030"/>
<path d="M269.114 96.6098C269.114 96.6098 269.114 94.8236 270.881 94.4486C272.647 94.0736 273.299 95.8597 273.299 95.8597C273.299 95.8597 275.718 95.205 277.947 99.3366C280.176 103.468 277.668 107.504 275.623 108.35C273.578 109.195 271.166 107.695 271.166 107.695L269.121 96.6161L269.114 96.6098Z" fill="#303030"/>
<path d="M269.032 117.096C275.496 119.022 275.041 107.104 273.242 103.951C273.135 103.761 272.787 103.888 272.875 104.11C274.376 108 275.465 116.975 269.07 116.861C268.931 116.861 268.912 117.058 269.038 117.096H269.032Z" fill="#303030"/>
<path d="M291.313 182.782C291.313 182.782 289.73 184.015 287.78 185.687C287.78 185.687 288.514 186.628 289.629 188.865C290.35 190.308 291.49 189.495 293.415 188.992C294.554 188.694 295.814 187.53 295.517 186.736C295.181 185.833 293.263 185.045 291.313 182.789V182.782Z" fill="url(#paint0_linear_1_989)"/>
<path d="M253.805 259.719C254.267 261.67 255.052 263.151 254.425 264.81C253.754 266.584 248.024 267.213 247.98 268.256C247.923 269.584 253.463 268.637 255.723 268.637C257.983 268.637 258.23 268.955 258.566 268.306C259.06 267.353 258.636 266.139 257.705 263.698C257.312 262.668 256.996 261.226 256.945 259.115L253.811 259.719H253.805Z" fill="url(#paint1_linear_1_989)"/>
<path d="M258.566 268.306C259.06 267.353 258.636 266.139 257.705 263.698C257.325 262.7 257.021 261.327 256.951 259.331L254.071 260.539L254.121 260.895C254.362 261.715 254.59 262.465 254.64 263.202C255.014 263.221 255.793 263.342 256.584 263.012C256.584 263.012 256.717 263.781 257.053 264.575C257.395 265.395 258.408 266.387 258.015 267.556C257.749 268.351 255.204 267.83 253.982 268.02C253.589 268.084 253.482 268.383 253.513 268.764C254.362 268.694 255.147 268.637 255.717 268.637C257.983 268.637 258.224 268.955 258.56 268.306H258.566Z" fill="#D37A85"/>
<path d="M259.129 268.376H253.399C253.165 268.376 252.981 268.567 252.988 268.802C252.988 269.037 253.19 269.228 253.425 269.228H259.155C259.389 269.228 259.573 269.037 259.566 268.802C259.566 268.567 259.364 268.376 259.129 268.376Z" fill="#363344"/>
<path d="M247.321 268.523C247.277 266.927 250.594 266.571 252.861 265.395C253.317 265.325 254.906 266.603 254.976 269.228H248.467C247.264 269.228 247.315 268.516 247.315 268.516L247.321 268.523Z" fill="#363344"/>
<path d="M264.036 259.401C264.182 261.391 264.727 262.98 263.84 264.505C262.89 266.139 257.287 267.213 257.243 268.256C257.186 269.584 262.726 268.637 264.986 268.637C267.246 268.637 267.493 268.955 267.829 268.306C268.323 267.353 267.804 266.482 267.265 263.933C267.038 262.859 266.955 261.391 267.24 259.306L264.036 259.401Z" fill="url(#paint2_linear_1_989)"/>
<path d="M267.835 268.306C268.329 267.353 267.81 266.482 267.272 263.933C267.088 263.069 267 261.95 267.12 260.463L264.169 260.622C264.239 261.156 264.302 261.658 264.328 262.147C264.72 262.268 265.493 262.459 266.335 262.414C266.335 262.414 266.347 263.832 266.594 265.185C266.841 266.539 267.183 267.811 265.417 267.957C263.65 268.097 261.884 268.027 261.884 268.027L262.257 268.815C263.302 268.732 264.296 268.643 264.986 268.643C267.253 268.643 267.493 268.961 267.829 268.313L267.835 268.306Z" fill="#D37A85"/>
<path d="M244.928 111.21C245.707 113.079 246.517 114.7 246.156 116.797C245.896 118.304 244.858 119.454 244.738 121.05C244.611 122.658 245.118 124.139 246.441 125.073C246.637 125.213 246.84 124.914 246.688 124.749C243.775 121.692 246.618 119.226 246.821 115.984C246.928 114.293 246.017 112.494 245.168 111.102C245.092 110.981 244.871 111.064 244.928 111.204V111.21Z" fill="#303030"/>
<path d="M246.441 113.982C246.441 113.982 242.446 111.35 243.003 105.343C243.56 99.3366 246.815 96.5144 251.177 94.544C255.546 92.5735 259.212 92.8786 260.795 94.474C260.795 94.474 264.606 91.9633 268.88 96.0885C270.982 98.1162 273.337 101.917 273.844 105.49C274.528 110.327 273.622 114.96 270.134 116.085C270.134 116.085 269.925 122.493 261.491 123.738C258.18 124.228 246.441 113.975 246.441 113.975V113.982Z" fill="#212121"/>
<path d="M266.835 113.416L262.859 113.034L259.395 123.325C260.193 123.656 260.871 123.815 261.364 123.738C269.52 122.435 270.59 113.511 266.841 113.416H266.835Z" fill="#212121"/>
<path d="M245.928 133.038C242.534 134.932 241.021 139.267 237.912 144.479C234.797 149.685 233.385 150.632 231.499 153.098C229.612 155.558 228.01 165.271 234.189 163.898C241.597 162.251 245.934 154.808 246.498 153.194C247.061 151.585 245.934 133.044 245.934 133.044L245.928 133.038Z" fill="#FF2400"/>
<path d="M281.024 162.658C283.949 169.288 286.665 175.631 291.313 182.782L287.849 185.763C287.849 185.763 278.194 175.256 274.04 166.072L281.024 162.665V162.658Z" fill="url(#paint3_linear_1_989)"/>
<path d="M240.844 175.822C240.844 175.822 237.494 191.923 240.755 215.409C243.573 235.699 252.906 262.077 252.906 262.077C252.906 262.077 255.913 262.478 258.737 260.584C258.737 260.584 258.281 245.1 257.179 239.036C256.078 232.972 254.305 228.618 253.653 225.211C252.994 221.804 257.021 198.832 257.021 198.832C257.021 198.832 257.388 216.261 258.237 227.054C258.984 236.519 261.668 253.382 262.618 260.768C262.618 260.768 265.6 262.948 269.032 260.768C269.032 260.768 270.463 247.127 270.647 239.741C270.83 232.355 269.963 228.185 269.241 222.312C268.519 216.439 274.42 198.54 275.326 190.016C276.104 182.681 273.553 174.43 274.047 175.619L240.844 175.809V175.822Z" fill="#E7DEE8"/>
<path d="M240.755 215.416C243.573 235.705 252.906 262.084 252.906 262.084C252.906 262.084 255.989 263.622 258.737 260.59C258.737 260.59 258.281 245.106 257.179 239.042C256.078 232.978 254.305 228.624 253.653 225.217C252.994 221.81 257.021 198.838 257.021 198.838L256.692 193.537L259.009 192.024L255.311 191.268L255.223 180.659L244.022 175.809L240.85 175.828C240.85 175.828 237.501 191.929 240.762 215.416H240.755Z" fill="#C5BBC7"/>
<path d="M269.918 111.992C269.918 111.992 262.96 112.062 258.427 108.903C253.76 105.648 252.462 99.4765 252.462 99.4765C252.462 99.4765 247.847 100.106 245.802 103.843C242.484 109.907 247.568 116.079 247.568 116.079L266.062 117.147L266.702 113.854C268.348 113.473 269.247 112.78 269.925 111.998L269.918 111.992Z" fill="#212121"/>
<path d="M263.549 119.556C263.549 119.556 255.236 122.2 253.488 125.111C257.065 128.004 252.348 130.94 249.518 131.792C249.518 131.792 249.48 138.485 256.122 138.752C262.764 139.019 266.689 131.601 266.689 131.601C263.859 130.94 261.909 129.173 261.371 127.209C260.522 124.126 262.251 121.698 263.555 119.556H263.549Z" fill="url(#paint4_linear_1_989)"/>
<path d="M253.558 129.561C254.697 131.582 258.553 136.991 265.632 133.228C266.322 132.281 266.683 131.601 266.683 131.601C263.853 130.94 261.903 129.173 261.364 127.209C260.516 124.126 262.245 121.698 263.549 119.556C263.549 119.556 255.236 122.2 253.488 125.111C255.451 126.701 254.913 128.302 253.558 129.567V129.561Z" fill="#D37A85"/>
<path d="M266.164 113.835C264.973 113.702 264.087 116.047 264.087 116.047C262.156 116.461 262.833 112.068 262.833 112.068C253.323 108.801 251.842 101.885 251.842 101.885C247.264 102.667 246.587 107.86 246.587 107.86C243.75 121.418 250.576 127.018 252.83 127.362C255.039 127.692 260.117 125.722 263.536 120.033C265.429 120.484 267.183 119.372 267.905 117.687C268.595 116.073 268.241 113.988 266.164 113.848V113.835Z" fill="url(#paint5_linear_1_989)"/>
<path d="M249.195 120.776C249.195 120.776 252.279 121.476 256.47 120.471C256.47 120.471 255.603 123.446 252.804 123.516C250.341 123.58 249.195 120.776 249.195 120.776Z" fill="#4B3C59"/>
<path d="M250.487 121.329C250.487 121.329 252.811 121.704 255.748 120.999C255.748 120.999 255.141 122.728 252.906 122.874C251.069 122.995 250.487 121.329 250.487 121.329Z" fill="#FFF4E9"/>
<path d="M252.006 114.452C252.443 113.13 252.26 111.592 251.405 110.301C252.006 110.835 252.405 111.541 252.633 112.291C252.849 113.034 252.937 113.861 252.722 114.624C252.336 116.06 251.272 117.153 249.974 117.948C250.449 118.634 251.177 119.27 252.082 119.613C250.468 119.423 249.55 118.685 248.549 117.668C250.126 116.975 251.532 115.997 252.006 114.452Z" fill="#D37A85"/>
<path d="M254.773 108.986C254.628 109.786 255.85 109.265 258.129 110.123C259.509 110.644 260.649 111.617 260.883 111.445C261.111 111.274 260.465 110.403 258.471 109.373C256.863 108.541 254.881 108.401 254.773 108.986V108.986Z" fill="#212121"/>
<path d="M250.443 108.801C250.525 109.545 249.417 109.138 247.967 109.634C246.929 109.99 246.188 110.638 245.972 110.511C245.757 110.384 246.175 109.577 247.473 108.922C248.67 108.312 250.386 108.337 250.443 108.801Z" fill="#212121"/>
<path d="M255.71 113.149C255.653 113.873 256.078 114.49 256.654 114.535C257.23 114.579 257.743 114.032 257.8 113.308C257.857 112.583 257.433 111.967 256.856 111.922C256.28 111.878 255.767 112.424 255.71 113.149Z" fill="#4B3C59"/>
<path d="M259.383 114.185C259.199 113.085 258.344 112.049 256.907 111.757C256.071 111.573 255.267 112.507 255.394 113.073C255.394 113.073 256.033 112.456 256.907 112.666C257.781 112.876 259.389 114.179 259.389 114.179L259.383 114.185Z" fill="#4B3C59"/>
<path d="M258.376 112.685C258.376 112.685 259.364 112.183 259.433 112.291C259.503 112.399 258.712 113.073 258.712 113.073L258.376 112.685V112.685Z" fill="#4B3C59"/>
<path d="M258.794 113.168C258.794 113.168 259.946 112.952 259.978 113.034C260.01 113.117 259.022 113.632 259.022 113.632L258.794 113.168Z" fill="#4B3C59"/>
<path d="M247.106 112.78C247.055 113.473 247.422 114.071 247.929 114.115C248.435 114.153 248.885 113.626 248.936 112.926C248.986 112.234 248.619 111.636 248.113 111.592C247.606 111.553 247.156 112.081 247.106 112.78Z" fill="#4B3C59"/>
<path d="M250.101 113.74C250.126 112.71 249.271 111.534 248.176 111.433C247.302 111.299 246.606 112.399 246.713 112.952C246.713 112.952 247.27 112.157 248.17 112.31C249.176 112.481 250.101 113.74 250.101 113.74Z" fill="#4B3C59"/>
<path d="M247.403 112.081C247.403 112.081 246.568 111.439 246.485 111.534C246.403 111.63 247.036 112.412 247.036 112.412L247.403 112.081Z" fill="#4B3C59"/>
<path d="M246.948 112.494C246.948 112.494 245.922 112.106 245.877 112.183C245.839 112.259 246.669 112.914 246.669 112.914L246.948 112.494V112.494Z" fill="#4B3C59"/>
<path d="M266.892 117.401C266.499 118.329 265.695 118.876 265.1 118.622C264.505 118.367 264.34 117.408 264.733 116.48C265.125 115.552 265.93 115.005 266.525 115.259C267.12 115.513 267.284 116.473 266.892 117.401Z" fill="#D27A84"/>
<path d="M292.098 186.73C290.61 186.374 288.913 185.56 288.134 185.058C287.355 184.562 284.278 180.888 282.157 177.621C280.036 174.354 277.725 169.192 277.725 169.192C280.745 167.584 281.879 164.597 281.879 164.597L281.841 164.489C281.644 164.038 281.442 163.586 281.246 163.135L275.952 165.144L274.059 166.072C278.004 174.805 286.931 184.734 287.799 185.687C287.799 185.687 288.533 186.628 289.648 188.865C290.369 190.308 291.509 189.495 293.434 188.992C293.586 188.954 293.738 188.897 293.89 188.833L292.117 186.736L292.098 186.73Z" fill="#D37A85"/>
<path d="M270.931 132.923C275.364 134.627 277.06 152.247 282.582 163.612C282.582 163.612 280.46 167.444 274.23 168.728C274.23 168.728 269.133 161.056 267.436 151.821C265.968 143.818 270.925 132.93 270.925 132.93L270.931 132.923Z" fill="#FF2400"/>
<path d="M221.026 131.786C223.198 133.584 225.743 139.833 228.01 144.288C230.277 148.738 231.923 150.537 234.189 153.95C236.456 157.357 236.975 161.997 234.424 163.421C231.878 164.838 228.573 162.944 225.553 157.077C222.533 151.204 221.07 140.125 219.469 137.188L221.026 131.792V131.786Z" fill="url(#paint6_linear_1_989)"/>
<path d="M275.307 180.373C273.939 170.712 268.576 163.465 268.475 159.067C268.361 153.956 269.95 151.903 271.115 145.572C271.824 141.74 273.85 134.474 270.925 132.93C267.531 131.131 266.537 131.366 266.537 131.366C266.537 131.366 262.485 137.761 256.116 137.614C249.746 137.474 249.892 131.48 249.892 131.48C249.892 131.48 247.631 132.11 245.928 133.044C245.928 133.044 242.553 141.422 242.674 145.998C242.794 150.613 246.707 156.473 246.777 159.067C246.916 164.463 243.098 164.088 239.844 180.373C244.826 185.204 270.165 183.64 275.3 180.373H275.307Z" fill="#FF2400"/>
<path d="M261.092 94.7346C259.433 91.8107 256.622 91.4421 253.621 92.5163C250.531 93.6286 246.485 96.1013 245.434 99.3748C245.365 99.5909 245.713 99.7498 245.808 99.5337C246.91 96.9784 249.164 95.4466 251.519 94.1054C254.805 92.2303 258.205 91.5056 260.788 94.919C260.921 95.097 261.213 94.9444 261.099 94.741L261.092 94.7346Z" fill="#303030"/>
<path d="M268.399 268.376H262.669C262.434 268.376 262.251 268.567 262.257 268.802C262.257 269.037 262.46 269.228 262.694 269.228H268.424C268.658 269.228 268.842 269.037 268.836 268.802C268.836 268.567 268.633 268.376 268.399 268.376Z" fill="#363344"/>
<path d="M256.59 268.523C256.546 266.927 259.864 266.571 262.131 265.395C262.586 265.325 264.182 266.603 264.245 269.228H257.736C256.533 269.228 256.584 268.516 256.584 268.516L256.59 268.523Z" fill="#363344"/>
<path d="M286.336 191.503L287.913 186.138C288.02 185.776 288.4 185.566 288.767 185.674L300.512 189.1C300.873 189.209 301.082 189.59 300.975 189.959L299.398 195.33C299.29 195.692 298.911 195.902 298.543 195.794L286.798 192.368C286.437 192.26 286.228 191.878 286.336 191.509V191.503Z" fill="#C5BBC7"/>
<path d="M286.634 191.433L288.122 186.361C288.21 186.056 288.527 185.884 288.831 185.973L300.278 189.317C300.582 189.406 300.753 189.723 300.664 190.028L299.177 195.101C299.088 195.406 298.771 195.578 298.467 195.489L287.02 192.145C286.716 192.056 286.545 191.738 286.634 191.433Z" fill="#ECEAED"/>
<path d="M287.723 192.101L289.401 186.386L299.588 189.361L297.91 195.069L287.723 192.101Z" fill="#363344"/>
<path d="M299.588 189.361L289.401 186.393L287.723 192.107L297.91 195.075L299.588 189.361ZM287.982 191.98L289.546 186.641L299.322 189.488L297.758 194.827L287.982 191.98Z" fill="#2D2C3A"/>
<path d="M299.221 192.717C299.063 192.673 298.968 192.501 299.018 192.342C299.063 192.183 299.233 192.088 299.392 192.139C299.55 192.183 299.645 192.355 299.594 192.514C299.55 192.673 299.379 192.768 299.221 192.717Z" fill="#2D2C3A"/>
<path d="M294.168 192.685C294.922 192.908 294.782 195.4 293.478 195.107C292.883 194.974 292.946 194.402 293.041 193.817C293.162 193.054 293.497 192.488 294.168 192.685Z" fill="#FFB7A7"/>
<path d="M290.572 192.062C291.23 192.279 290.927 194.643 289.818 194.211C289.312 194.014 289.249 193.601 289.363 193.086C289.515 192.406 289.983 191.865 290.572 192.062V192.062Z" fill="#FFB7A7"/>
<path d="M292.218 192.266C292.978 192.463 292.908 195.196 291.61 194.853C291.021 194.7 291.059 194.16 291.135 193.575C291.237 192.813 291.541 192.082 292.218 192.26V192.266Z" fill="#FFB7A7"/>
<path d="M293.231 184.473C294.491 184.969 295.479 185.789 295.903 186.857C296.327 187.925 296.91 188.967 296.201 189.278C295.346 189.653 294.82 188.103 294.08 187.263C293.807 186.952 292.066 187.162 291.503 186.094C290.939 185.026 291.902 183.952 293.238 184.473H293.231Z" fill="url(#paint7_linear_1_989)"/>
<path d="M270.678 147.689C270.678 147.689 265.03 153.378 253.995 153.098C245.65 152.882 243.149 148.897 243.149 148.897C244.219 152.838 246.726 156.988 246.777 159.061C246.916 164.457 243.098 164.082 239.844 180.367C244.826 185.198 270.165 183.634 275.3 180.367C273.933 170.705 268.57 163.459 268.468 159.061C268.373 154.567 269.583 152.437 270.672 147.689H270.678Z" fill="#CC1C05"/>
<path d="M255.565 97.4234C256.958 102.61 261.143 106.742 266.36 107.968C266.449 107.988 266.487 107.854 266.398 107.829C261.263 106.322 257.439 102.47 255.945 97.3217C255.875 97.0801 255.495 97.1818 255.565 97.4297V97.4234Z" fill="#303030"/>
<path d="M262.295 103.023C264.543 105.299 267.962 106.983 271.058 107.702C271.216 107.74 271.273 107.517 271.121 107.466C269.475 106.869 267.848 106.297 266.309 105.458C264.929 104.708 263.707 103.748 262.397 102.896C262.314 102.845 262.232 102.96 262.295 103.03V103.023Z" fill="#303030"/>
<path d="M262.694 98.237C263.897 100.099 265.841 101.619 268.025 102.089C268.095 102.102 268.114 102.013 268.057 101.987C265.955 101.104 264.252 99.9405 262.846 98.1289C262.783 98.0463 262.643 98.1543 262.7 98.2433L262.694 98.237Z" fill="#303030"/>
<path d="M262.441 95.6182C264.644 95.9932 266.132 97.0166 267.69 98.5675C267.766 98.6438 267.886 98.5484 267.835 98.4531C266.86 96.5653 264.543 95.3893 262.479 95.3385C262.327 95.3385 262.283 95.5864 262.441 95.6118V95.6182Z" fill="#303030"/>
<path d="M267.677 131.525C266.841 131.29 266.537 131.36 266.537 131.36C266.537 131.36 262.485 137.754 256.116 137.608C249.746 137.468 249.892 131.474 249.892 131.474C249.892 131.474 249.246 131.652 248.385 131.964C248.6 133.47 249.626 138.199 254.134 139.032L255.267 142.585L256.825 139.032C256.825 139.032 264.689 138.352 267.677 131.525V131.525Z" fill="#FF8B7B"/>
<path d="M234.424 163.421C236.526 162.226 237.729 157.573 232.702 151.674C237.691 158.387 235.475 163.313 232.632 163.135C229.612 162.944 226.876 160.103 223.951 149.78C221.026 139.458 219.469 137.182 219.469 137.182C221.07 140.119 222.533 151.198 225.553 157.071C228.573 162.944 231.885 164.857 234.424 163.415V163.421Z" fill="#D37A85"/>
<path d="M243.313 266.4H221.805V269.94H243.313V266.4Z" fill="#CC9767"/>
<path d="M135.202 266.4H25.9572V269.94H135.202V266.4Z" fill="#CC9767"/>
<path d="M136.05 68H221.165C222.413 68 223.432 69.017 223.432 70.2756V269.94H133.784V70.2756C133.784 69.0234 134.797 68 136.05 68V68Z" fill="#CC9767"/>
<path d="M139.115 72.2651H218.247C219.032 72.2651 219.671 72.9071 219.671 73.6953V269.718H137.69V73.7016C137.69 72.9134 138.33 72.2714 139.115 72.2714V72.2651Z" fill="#E8BC8B"/>
<path d="M200.499 158.584C201.177 195.571 201.17 232.762 202.373 269.711H203.507C203.494 234.548 202.329 199.29 201.81 164.146C201.367 133.896 198.65 102.636 199.752 72.2651H198.112C196.745 100.57 199.993 130.667 200.499 158.584V158.584Z" fill="#DEB07C"/>
<path d="M197.587 269.718C196.726 204.006 195.694 137.748 193.003 72.2714H191.901C192.445 137.983 194.313 204.025 196.016 269.718H197.587Z" fill="#DEB07C"/>
<path d="M181.251 269.718H182.72C183.322 237.351 182.6 204.699 182.347 172.383C182.081 139.064 182.081 105.579 181.22 72.2651H179.58C179.751 105.629 180.548 139.019 180.814 172.383C181.074 204.75 180.612 237.332 181.251 269.718V269.718Z" fill="#DEB07C"/>
<path d="M168.05 269.718H169.633C170.823 203.847 170.006 137.945 166.98 72.2714H165.942C168.468 137.996 169.24 203.873 168.05 269.718V269.718Z" fill="#DEB07C"/>
<path d="M159.591 269.718H160.68C161.009 236.544 158.527 203.377 157.261 170.343C156.007 137.494 156.463 105.026 157.299 72.2714H155.684C152.652 138.244 158.54 203.815 159.591 269.718V269.718Z" fill="#DEB07C"/>
<path d="M144.554 170.33C145.934 203.428 146.814 236.614 148.15 269.711H149.53C149.214 236.569 147.029 203.326 145.763 170.33C144.509 137.595 144.313 104.981 143.781 72.2651H142.084C141.381 104.803 143.205 138.104 144.554 170.33V170.33Z" fill="#DEB07C"/>
<path d="M210.041 175.047C210.262 206.835 212.396 238.146 213.757 269.711H215.442C214.973 257.164 213.827 244.648 213.169 232.164C212.168 213.178 211.668 194.109 211.484 175.047C211.162 140.723 212.472 106.532 212.827 72.2651H211.472C210.085 106.367 209.807 140.92 210.041 175.047V175.047Z" fill="#DEB07C"/>
<path d="M208.946 85.2637H148.416V170.248H208.946V85.2637Z" fill="#CC9767"/>
<path d="M161.915 132.784C161.389 116.963 161.415 101.059 160.408 85.2637H159.661C159.604 100.328 160.528 115.431 160.933 130.489C161.282 143.583 163.504 157.141 162.339 170.248H163.523C164.998 158.037 162.32 144.918 161.921 132.79L161.915 132.784Z" fill="#C78F63"/>
<path d="M164.067 85.2637C164.739 113.543 165.517 142.076 167.683 170.248H168.398C168.018 141.968 166.537 113.537 165.207 85.2637H164.067V85.2637Z" fill="#C78F63"/>
<path d="M176.294 85.2637H175.312C174.755 99.165 175.331 113.2 175.534 127.088C175.743 141.454 175.73 155.895 176.471 170.248H177.63C177.541 155.863 176.895 141.473 176.693 127.088C176.49 113.181 176.876 99.1714 176.3 85.2637H176.294Z" fill="#C78F63"/>
<path d="M186.317 85.2637H185.126C184.132 113.613 184.772 141.981 187.216 170.248H187.969C185.937 141.962 185.322 113.607 186.317 85.2637V85.2637Z" fill="#C78F63"/>
<path d="M192.566 85.2637H191.831C191.394 99.5082 193.37 113.746 194.358 127.934C195.345 142.108 194.921 156.105 194.244 170.248H195.377C198.062 141.848 193.231 113.632 192.566 85.2637V85.2637Z" fill="#C78F63"/>
<path d="M203.893 127.934C202.817 113.721 202.145 99.4701 201.075 85.2637H200.138C200.265 99.4892 202 113.765 202.988 127.934C203.975 142.057 204.089 156.13 204.532 170.248H205.666C206.4 156.238 204.95 141.841 203.899 127.934H203.893Z" fill="#C78F63"/>
<path d="M154.76 125.982C154.589 112.31 152.854 98.8472 151.848 85.2637H150.619C150.879 90.9908 151.873 96.6987 152.417 102.394C153.165 110.238 153.544 118.113 153.677 125.989C153.931 140.767 152.854 155.488 152.639 170.248H153.551C154.709 155.577 154.944 140.684 154.76 125.989V125.982Z" fill="#C78F63"/>
<path d="M208.946 192.8H148.416V261.416H208.946V192.8Z" fill="#CC9767"/>
<path d="M193.585 192.8H192.325C192.667 201.451 194.016 210.254 194.288 218.587C194.763 232.838 194.788 247.165 195.523 261.416H196.529C196.409 247.909 195.63 234.376 195.269 220.888C195.022 211.653 193.845 202.182 193.585 192.806V192.8Z" fill="#C78F63"/>
<path d="M188.026 192.8C188.558 215.657 189.698 238.578 190.78 261.416H192.028C191.477 238.584 190.799 215.6 189.343 192.8H188.026V192.8Z" fill="#C78F63"/>
<path d="M180.669 224.283C180.517 213.807 180.485 203.294 180.188 192.8H178.75C178.978 203.294 179.364 213.795 179.516 224.283C179.694 236.627 179.409 249.053 179.744 261.41H181.036C181.321 249.047 180.846 236.608 180.669 224.283V224.283Z" fill="#C78F63"/>
<path d="M169.892 192.8H168.993C170.317 215.651 170.697 238.533 170.038 261.416H171.228C171.887 238.533 171.469 215.638 169.899 192.8H169.892Z" fill="#C78F63"/>
<path d="M161.484 192.8H160.117C159.439 215.702 162.611 238.514 163.491 261.416H164.435C164.39 248.742 162.725 236.067 161.851 223.444C161.136 213.178 161.161 203.008 161.484 192.806V192.8Z" fill="#C78F63"/>
<path d="M151.993 192.8H150.379C150.575 203.046 151.55 213.369 152.31 223.437C153.272 236.087 153.905 248.761 154.792 261.416H155.969C155.564 248.748 154.095 236.048 153.215 223.437C152.5 213.21 152.246 203.008 151.993 192.8V192.8Z" fill="#C78F63"/>
<path d="M202.525 225.382C202.342 214.5 202.874 203.65 203.253 192.793H201.918C201.398 203.65 201.31 214.564 201.443 225.382C201.595 237.478 202.969 249.409 203.982 261.41H205.235C204.817 257.259 204.184 253.109 203.792 248.977C203.045 241.133 202.665 233.258 202.532 225.382H202.525Z" fill="#C78F63"/>
<path d="M148.416 85.2637V170.248H208.946V85.2637H148.416ZM206.647 167.642H150.714V87.8698H206.647V167.642Z" fill="#AD7A52"/>
<path d="M148.416 192.8V261.359H208.946V192.8H148.416V192.8ZM206.647 258.855H150.714V195.304H206.647V258.855Z" fill="#AD7A52"/>
<path d="M218.272 72.2651H139.089C138.317 72.2651 137.69 72.9198 137.69 73.727V269.718H139.609V75.6911C139.609 74.903 140.223 74.261 140.976 74.261H216.398C217.151 74.261 217.765 74.903 217.765 75.6911V269.718H219.684V73.727C219.684 72.9198 219.057 72.2651 218.285 72.2651H218.272Z" fill="#AD7A52"/>
<path d="M152.62 182.477C152.62 185.242 150.391 187.48 147.637 187.48C144.883 187.48 142.654 185.242 142.654 182.477C142.654 179.712 144.883 177.475 147.637 177.475C150.391 177.475 152.62 179.712 152.62 182.477Z" fill="#CC9767"/>
<path d="M152.62 181.378C152.62 184.143 150.391 186.38 147.637 186.38C144.883 186.38 142.654 184.143 142.654 181.378C142.654 178.613 144.883 176.375 147.637 176.375C150.391 176.375 152.62 178.613 152.62 181.378Z" fill="#F8E0CC"/>
<path d="M143.085 181.378C143.085 181.479 143.085 181.575 143.097 181.676C145.421 181.467 147.238 179.509 147.238 177.125C147.238 177.023 147.238 176.928 147.226 176.826C144.902 177.036 143.085 178.994 143.085 181.378Z" fill="#F8F7F5"/>
<path d="M158.958 185.503H147.529C146.44 185.503 145.554 184.613 145.554 183.52C145.554 182.426 146.44 181.536 147.529 181.536H158.958C160.047 181.536 160.933 182.426 160.933 183.52C160.933 184.613 160.047 185.503 158.958 185.503Z" fill="#CC9767"/>
<path d="M145.554 181.549V185.922C146.187 186.215 146.89 186.38 147.637 186.38C150.334 186.38 152.525 184.232 152.614 181.549H145.554Z" fill="#CFA893"/>
<path d="M158.958 183.361H147.529C146.44 183.361 145.554 182.471 145.554 181.378C145.554 180.284 146.44 179.394 147.529 179.394H158.958C160.047 179.394 160.933 180.284 160.933 181.378C160.933 182.471 160.047 183.361 158.958 183.361Z" fill="#F8E0CC"/>
<path d="M158.958 182.344H147.529C146.618 182.344 145.852 181.721 145.624 180.875C145.579 181.041 145.554 181.212 145.554 181.39C145.554 182.484 146.44 183.373 147.529 183.373H158.958C160.047 183.373 160.933 182.484 160.933 181.39C160.933 181.212 160.908 181.041 160.864 180.875C160.636 181.721 159.87 182.344 158.958 182.344Z" fill="#D7B49D"/>
<path d="M152.652 181.003H147.65C147.365 181.003 147.131 180.767 147.131 180.481C147.131 180.195 147.365 179.96 147.65 179.96H152.652C152.937 179.96 153.171 180.195 153.171 180.481C153.171 180.767 152.937 181.003 152.652 181.003Z" fill="#F8F7F5"/>
<path d="M155.343 181.003H154.266C153.981 181.003 153.747 180.767 153.747 180.481C153.747 180.195 153.981 179.96 154.266 179.96H155.343C155.627 179.96 155.862 180.195 155.862 180.481C155.862 180.767 155.627 181.003 155.343 181.003Z" fill="#F8F7F5"/>
<path d="M181.935 120.471C181.935 122.448 180.479 124.05 178.681 124.05C176.883 124.05 175.426 122.448 175.426 120.471C175.426 118.495 176.883 116.893 178.681 116.893C180.479 116.893 181.935 118.495 181.935 120.471Z" fill="#A3714E"/>
<path d="M181.935 119.295C181.935 121.101 180.479 122.563 178.681 122.563C176.883 122.563 175.426 121.101 175.426 119.295C175.426 117.49 176.883 116.028 178.681 116.028C180.479 116.028 181.935 117.49 181.935 119.295Z" fill="#F8E0CC"/>
<path d="M178.681 121.628C179.964 121.628 181.004 120.584 181.004 119.295C181.004 118.007 179.964 116.963 178.681 116.963C177.397 116.963 176.357 118.007 176.357 119.295C176.357 120.584 177.397 121.628 178.681 121.628Z" fill="#363344"/>
<path d="M178.681 120.993C179.614 120.993 180.371 120.233 180.371 119.295C180.371 118.358 179.614 117.598 178.681 117.598C177.747 117.598 176.99 118.358 176.99 119.295C176.99 120.233 177.747 120.993 178.681 120.993Z" fill="#626376"/>
<path d="M177.3 119.295C177.3 119.48 177.338 119.651 177.402 119.81C177.528 119.848 177.661 119.874 177.807 119.874C178.56 119.874 179.175 119.257 179.175 118.501C179.175 118.317 179.137 118.145 179.073 117.986C178.947 117.948 178.814 117.922 178.668 117.922C177.915 117.922 177.3 118.539 177.3 119.295Z" fill="#A5ADBC"/>
<path d="M124.343 109.481H117.467C116.624 109.481 115.941 110.167 115.941 111.013V118.132C115.941 118.978 116.624 119.664 117.467 119.664H124.343C125.186 119.664 125.869 118.978 125.869 118.132V111.013C125.869 110.167 125.186 109.481 124.343 109.481Z" fill="#C5BBC7"/>
<path d="M123.881 109.481H117.385C116.588 109.481 115.941 110.13 115.941 110.931V117.694C115.941 118.494 116.588 119.143 117.385 119.143H123.881C124.678 119.143 125.325 118.494 125.325 117.694V110.931C125.325 110.13 124.678 109.481 123.881 109.481Z" fill="#E7DEE8"/>
<path d="M116.391 111.255V115.526C116.84 115.666 117.315 115.736 117.809 115.736C120.494 115.736 122.665 113.549 122.665 110.861C122.665 110.549 122.634 110.244 122.577 109.945H117.695C116.973 109.945 116.391 110.53 116.391 111.255Z" fill="#F6F0F7"/>
<path d="M123.153 114.312C123.153 115.71 122.026 116.836 120.639 116.836C119.253 116.836 118.126 115.704 118.126 114.312C118.126 112.92 119.253 111.789 120.639 111.789C122.026 111.789 123.153 112.92 123.153 114.312Z" fill="#626376"/>
<path d="M122.463 114.312C122.463 115.329 121.646 116.149 120.633 116.149C119.62 116.149 118.803 115.329 118.803 114.312C118.803 113.295 119.62 112.475 120.633 112.475C121.646 112.475 122.463 113.295 122.463 114.312Z" fill="#E7DEE8"/>
<path d="M119.145 114.312C119.145 114.509 119.183 114.7 119.253 114.871C119.392 114.916 119.538 114.935 119.69 114.935C120.506 114.935 121.171 114.268 121.171 113.448C121.171 113.251 121.133 113.06 121.064 112.888C120.924 112.844 120.779 112.825 120.627 112.825C119.81 112.825 119.145 113.492 119.145 114.312Z" fill="white"/>
<path d="M239.419 276.868C239.419 279.15 212.099 281 178.396 281C144.693 281 117.372 279.15 117.372 276.868C117.372 274.586 144.693 272.737 178.396 272.737C212.099 272.737 239.419 274.586 239.419 276.868Z" fill="#BF3054"/>
<path d="M178.396 279.366C211.182 279.366 237.76 277.935 237.76 276.169C237.76 274.403 211.182 272.972 178.396 272.972C145.61 272.972 119.031 274.403 119.031 276.169C119.031 277.935 145.61 279.366 178.396 279.366Z" fill="#D94167"/>
<path d="M87.5506 150.079C87.5506 150.079 94.6039 158.819 98.8651 163.389C103.126 167.959 112.364 177.405 112.364 177.405L105.874 179.344C105.874 179.344 96.8643 175.218 90.4188 169.358C83.5934 163.154 78.5851 155.577 78.5851 155.577L87.5569 150.085L87.5506 150.079Z" fill="#E89207"/>
<path d="M93.5339 169.116C87.6582 163.777 83.9479 157.796 83.9479 157.796C87.4683 155.704 89.0955 153.34 89.64 152.691C88.2281 150.975 87.5506 150.079 87.5506 150.079L78.5788 155.571C78.5788 155.571 83.5934 163.148 90.4125 169.351C96.858 175.212 105.868 179.337 105.868 179.337L107.064 178.981C104.557 177.424 98.156 173.324 93.5276 169.116H93.5339Z" fill="#E89207"/>
<path d="M75.356 154.821C75.356 154.821 89.1082 149.939 87.2783 146.386C84.4291 143.271 80.1933 133.006 76.54 130.514C74.134 128.626 67.7708 137.735 69.3854 144.295C70.715 149.704 75.356 154.821 75.356 154.821V154.821Z" fill="#E89207"/>
<path d="M74.6532 155.259C78.4585 153.346 84.8344 149.138 87.6076 145.763L90.824 149.602C88.38 152.564 82.9602 157.052 77.705 159.251L74.6532 155.259Z" fill="#E89207"/>
<path d="M64.2061 91.8743C80.9215 79.0536 86.8921 103.182 86.8921 103.182C86.8921 103.182 87.2657 106.24 83.9416 107.142C82.6183 107.504 74.381 110.708 74.381 110.708L65.3458 116.785C65.3458 116.785 60.1856 115.119 59.2105 106.513C58.3178 98.6056 60.5845 91.6963 64.2061 91.8743V91.8743Z" fill="#212121"/>
<path d="M72.8994 122.474C71.8293 124.914 71.5064 127.896 71.5761 128.169C71.5761 128.169 69.7399 130.781 63.687 130.514C60.0083 128.982 56.6969 125.684 56.6969 125.684C57.8619 125.264 60.7681 124.616 62.6992 120.808C64.3328 117.579 64.2125 111.897 64.2125 111.897L68.0494 113.397L72.9057 122.474H72.8994Z" fill="#D27A84"/>
<path d="M65.3965 105.985C65.9663 106.678 65.7827 108.363 66.9034 108.477C68.29 108.617 67.9608 103.621 70.6453 100.004C71.709 98.5675 74.4379 96.3047 78.7814 97.4551C84.2012 98.8917 84.7647 102.019 84.7964 105.057C84.8154 106.475 84.6001 109.424 82.5993 114.433C80.2123 120.401 76.8819 123.758 74.3556 123.916C72.6651 124.018 71.3102 123.516 70.0628 122.493C67.9228 120.745 65.5548 117.903 64.9279 112.373C62.1041 111.871 61.2113 109.558 61.6609 107.759C62.1231 105.903 63.7629 104.517 65.4028 105.992L65.3965 105.985Z" fill="url(#paint8_linear_1_989)"/>
<path d="M65.1875 108.699C65.2635 109.71 64.7823 110.568 64.1112 110.619C63.44 110.67 62.8322 109.894 62.7562 108.884C62.6802 107.873 63.1614 107.015 63.8326 106.964C64.5037 106.913 65.1116 107.689 65.1875 108.699V108.699Z" fill="#D27A84"/>
<path d="M81.428 106.341C81.8395 105.445 83.1818 105.833 84.2835 106.57C85.1826 107.168 85.5372 108.655 85.1193 108.973C84.5051 109.443 84.3975 108.776 83.3591 108.166C82.1624 107.46 81.0101 107.257 81.428 106.341V106.341Z" fill="#212121"/>
<path d="M77.1289 104.701C77.0972 103.888 76.0462 103.646 73.8428 103.926C71.937 104.167 70.3098 105.356 70.6327 105.973C70.9746 106.615 72.0699 106.17 73.9947 105.839C75.432 105.591 77.1668 105.826 77.1225 104.708L77.1289 104.701Z" fill="#212121"/>
<path d="M80.244 106.354C79.7438 107.009 79.2879 107.663 78.984 108.369C78.8257 108.725 78.6928 109.087 78.6231 109.462C78.5661 109.647 78.5471 109.831 78.5281 110.022C78.5155 110.212 78.4712 110.397 78.4965 110.581C78.4775 111.331 78.6421 112.068 78.946 112.748C79.1043 113.085 79.2816 113.416 79.4905 113.721C79.5982 113.874 79.7058 114.026 79.8261 114.166C79.9337 114.312 80.0857 114.439 80.168 114.566L80.4656 115.056L80.2313 115.316C80.0604 115.507 79.9337 115.583 79.7818 115.698C79.6298 115.793 79.4779 115.882 79.3196 115.946C79.003 116.085 78.6738 116.162 78.3445 116.194C77.686 116.244 77.0655 116.124 76.5084 115.901C76.464 115.882 76.4451 115.838 76.464 115.793C76.4767 115.755 76.5147 115.736 76.5527 115.742C77.1352 115.799 77.7114 115.742 78.2052 115.552C78.4522 115.45 78.6738 115.323 78.87 115.164C78.965 115.088 79.0537 114.999 79.1296 114.91C79.1993 114.827 79.2879 114.706 79.2943 114.655L79.3639 115.399C79.1613 115.234 79.0537 115.049 78.9207 114.871C78.7941 114.693 78.6738 114.509 78.5661 114.318C78.3445 113.943 78.1609 113.543 78.0026 113.13C77.705 112.303 77.5657 111.407 77.6607 110.536C77.6607 110.314 77.7304 110.104 77.7747 109.888C77.819 109.672 77.8633 109.462 77.952 109.265C78.0849 108.852 78.2685 108.471 78.4838 108.102C78.6738 107.721 78.9713 107.403 79.2056 107.06C79.4779 106.754 79.7691 106.475 80.054 106.182C80.1047 106.132 80.187 106.125 80.2377 106.176C80.2883 106.221 80.2946 106.303 80.2503 106.354H80.244Z" fill="#D27A84"/>
<path d="M71.7724 107.384C71.7724 107.384 71.918 107.759 72.2219 108.197C72.4942 108.655 72.9817 109.094 73.5452 109.31C73.6782 109.367 73.8554 109.405 73.9694 109.437C74.1847 109.488 74.2353 109.481 74.381 109.488C74.6342 109.488 74.8938 109.45 75.1218 109.348C75.565 109.144 75.9005 108.877 75.9005 108.877C75.9005 108.877 75.9069 108.985 75.8499 109.157C75.7929 109.322 75.7106 109.589 75.4763 109.818C75.2674 110.066 74.9128 110.32 74.4696 110.384C74.267 110.435 73.9568 110.397 73.8111 110.378C73.5705 110.339 73.3869 110.269 73.178 110.174C72.7728 110.003 72.4182 109.697 72.1776 109.373C71.9496 109.03 71.8294 108.68 71.7534 108.382C71.6457 107.771 71.7724 107.384 71.7724 107.384V107.384Z" fill="#634A64"/>
<path d="M80.1933 109.933C80.1933 109.933 80.4023 110.193 80.6935 110.498C80.9784 110.816 81.371 111.128 81.7636 111.261C81.8395 111.299 81.9852 111.331 82.1055 111.35C82.1814 111.356 82.2827 111.382 82.3777 111.382C82.555 111.375 82.7449 111.356 82.9032 111.248C83.2325 111.058 83.4541 110.784 83.4541 110.784C83.4541 110.784 83.568 111.128 83.3085 111.611C83.1692 111.833 82.9096 112.113 82.5423 112.208C82.3651 112.253 82.1751 112.284 81.9662 112.259C81.7952 112.24 81.6496 112.221 81.4533 112.151C81.0987 112.017 80.7948 111.782 80.5985 111.515C80.3959 111.255 80.301 110.962 80.2313 110.727C80.1174 110.244 80.206 109.914 80.206 109.914L80.1933 109.933Z" fill="#634A64"/>
<path d="M66.4412 267.747C67.0807 270.042 65.4915 271.707 66.0233 273.372C66.6375 275.292 79.9084 274.841 80.0857 273.639C80.4403 271.243 72.5955 270.944 71.5634 269.056C70.8416 267.734 71.1329 266.419 71.1329 266.419L66.4349 267.753L66.4412 267.747Z" fill="#363344"/>
<path d="M25.4697 267.747C25.5583 270.042 23.5639 271.707 23.6969 273.372C23.8488 275.292 37.2274 274.841 37.6959 273.639C38.633 271.243 30.8578 270.944 30.2817 269.056C29.8828 267.734 30.4906 266.419 30.4906 266.419L25.4697 267.753V267.747Z" fill="#363344"/>
<path d="M58.3748 123.408C58.3748 123.408 50.5237 125.175 48.276 126.103C41.4885 128.893 39.2978 137.106 35.062 148.979C31.1618 159.912 29.3763 168.582 31.0225 171.474C32.8206 174.633 59.3055 180.062 66.6121 173.756C70.4111 170.476 72.0699 161.8 74.2037 156.162C76.3374 150.524 81.3583 137.983 78.8257 133.19C77.2682 130.241 73.5515 127.743 73.5515 127.743L67.7328 129.11L58.3748 123.402V123.408Z" fill="#FFA70B"/>
<path d="M56.8679 174.831L56.1271 174.551C59.926 164.298 64.5734 146.856 64.624 146.685C66.4855 139.636 66.5108 132.777 66.5108 132.714H67.3023C67.3023 132.784 67.2833 139.737 65.3902 146.888C65.3458 147.06 60.6858 164.546 56.8679 174.831Z" fill="#E89207"/>
<path d="M42.0584 131.709C39.4814 135.828 37.6516 141.721 35.062 148.986C31.1618 159.919 29.1863 169.154 31.0225 171.481C33.2765 174.328 59.3055 180.068 66.6121 173.763C68.309 172.301 69.5753 169.765 70.6517 166.898C50.2071 157.713 43.5843 137.513 42.0647 131.709H42.0584Z" fill="#FFA70B"/>
<path d="M56.8679 174.831L56.1271 174.551C57.3871 171.163 58.8813 166.586 60.5655 160.955L61.3253 161.184C59.6284 166.828 58.1342 171.424 56.8679 174.824V174.831Z" fill="#E89207"/>
<path d="M58.7483 123.294L58.0202 123.516L63.0158 134.837L65.6941 132.37L66.6185 133.75L68.1887 132.472L69.607 135.911L73.7351 127.857L73.4186 127.648L67.8468 128.817L58.7483 123.294Z" fill="#E89207"/>
<path d="M62.1927 120.529L67.8468 128.817L63.44 132.898L58.4634 122.779L62.1927 120.529Z" fill="#E7DEE8"/>
<path d="M67.8468 128.817L70.1262 134.125L73.7478 127.387L72.1586 124.215L67.8468 128.817Z" fill="#E7DEE8"/>
<path d="M66.1309 176.242C66.1309 176.242 74.0581 208.691 75.375 219.356C76.692 230.061 76.1791 244.013 76.5907 249.492C77.0022 254.971 76.9199 259.865 76.5337 262.376C76.1475 264.887 73.3996 267.563 69.7146 268.383C66.0296 269.203 62.7436 267.639 61.6609 264.588C60.5718 261.537 60.5149 233.9 59.9007 227.912C59.2865 221.924 50.1501 198.927 50.1501 198.927L50.7959 177.602L66.1373 176.235L66.1309 176.242Z" fill="#474557"/>
<path d="M30.2437 175.377C30.2437 175.377 29.3636 182.134 29.2243 191.796C29.0787 201.762 31.2694 218.46 30.4906 224.289C29.7055 230.111 21.8164 256.7 22 260.666C22.1836 264.632 23.3296 267.321 25.7609 268.249C28.1733 269.165 33.3778 269.514 35.9294 264.753C37.6643 261.518 44.9266 234.885 46.9653 225.598C47.7504 222.026 52.4801 194.535 52.4801 194.535L55.323 192.933L54.6835 177.742L30.2437 175.377V175.377Z" fill="#626376"/>
<path d="M66.6501 177.214C55.4433 180.017 41.7988 179.127 30.2437 175.377L31.0225 171.481C42.7992 175.212 56.0828 176.178 66.8591 173.419L66.6565 177.214H66.6501Z" fill="#363344"/>
<path d="M47.508 174.256L45.7858 174.108C45.3119 174.067 44.8949 174.419 44.8543 174.895L44.4946 179.107C44.454 179.582 44.8052 180.001 45.279 180.042L47.0012 180.19C47.4751 180.231 47.8921 179.878 47.9327 179.403L48.2924 175.191C48.333 174.715 47.9818 174.297 47.508 174.256Z" fill="#626376"/>
<path d="M62.0702 174.001L63.9219 173.809C64.3564 173.764 64.7519 174.081 64.7974 174.524L65.2198 178.627C65.2647 179.063 64.9491 179.46 64.5083 179.506L62.6566 179.698C62.2221 179.743 61.8266 179.426 61.7811 178.984L61.3587 174.88C61.3138 174.444 61.6294 174.047 62.0702 174.001V174.001Z" fill="#474557"/>
<path d="M35.2165 172.398L36.8102 172.758C37.2982 172.869 37.6108 173.356 37.4996 173.852L36.6629 177.586C36.5531 178.075 36.0674 178.389 35.5733 178.278L33.9796 177.918C33.4916 177.807 33.179 177.32 33.2902 176.824L34.1269 173.091C34.2367 172.601 34.7223 172.287 35.2165 172.398V172.398Z" fill="#626376"/>
<path d="M77.3188 149.704L70.7783 148.833L71.6964 145.14L78.2369 146.011L77.3188 149.704Z" fill="#E7DEE8"/>
<path d="M103.709 187.619L120.456 187.677C121.127 187.677 121.678 187.162 121.678 186.526L121.849 150.702C121.849 150.066 121.31 149.545 120.633 149.545L103.886 149.488C103.215 149.488 102.664 150.003 102.664 150.638L102.493 186.463C102.493 187.098 103.031 187.619 103.709 187.619V187.619Z" fill="#EFBA73"/>
<path d="M105.558 187.626L75.584 187.518C74.9191 187.518 74.3873 187.003 74.3873 186.374L74.5519 150.511C74.5519 149.882 75.0964 149.374 75.7549 149.38L105.728 149.488C106.393 149.488 106.925 150.003 106.925 150.632L106.761 186.494C106.761 187.124 106.216 187.632 105.558 187.626V187.626Z" fill="#FFD68D"/>
<path d="M104.329 151.986C104.329 151.986 103.924 152.539 103.209 153.505C102.48 154.459 101.467 155.851 100.195 157.465C98.9221 159.08 97.4595 160.986 95.8513 162.989C94.2494 164.997 92.5019 167.114 90.767 169.231C89.0069 171.335 87.253 173.438 85.5752 175.39C83.91 177.348 82.3017 179.134 80.9531 180.685C79.6045 182.236 78.4205 183.481 77.6227 184.378C76.8059 185.255 76.3374 185.757 76.3374 185.757C76.3374 185.757 76.7426 185.204 77.4581 184.238C78.1862 183.284 79.1929 181.892 80.4719 180.278C81.7446 178.663 83.2008 176.756 84.8154 174.754C86.4172 172.746 88.1648 170.629 89.9059 168.512C91.6661 166.408 93.4199 164.304 95.0978 162.359C96.763 160.402 98.3712 158.616 99.7198 157.065C101.075 155.514 102.252 154.268 103.05 153.372C103.867 152.494 104.336 151.992 104.336 151.992L104.329 151.986Z" fill="#EFBA73"/>
<path d="M76.1601 150.918C76.1601 150.918 76.6477 151.439 77.4961 152.355C78.3255 153.283 79.5538 154.579 80.9594 156.187C82.3651 157.796 84.0366 159.645 85.7651 161.679C87.4936 163.713 89.3361 165.887 91.1786 168.055C92.9831 170.26 94.7876 172.46 96.4781 174.532C98.1749 176.598 99.6882 178.581 101.018 180.246C102.347 181.918 103.398 183.361 104.165 184.346C104.905 185.35 105.336 185.922 105.336 185.922C105.336 185.922 104.848 185.401 104 184.492C103.171 183.564 101.942 182.267 100.537 180.659C99.131 179.051 97.4595 177.201 95.731 175.167C94.0024 173.133 92.16 170.96 90.3175 168.792C88.513 166.586 86.7085 164.381 85.018 162.315C83.3274 160.249 81.8142 158.266 80.4782 156.601C79.1486 154.929 78.0976 153.486 77.3315 152.501C76.5907 151.497 76.1601 150.924 76.1601 150.924V150.918Z" fill="#EFBA73"/>
<path d="M120.62 151.986C120.62 151.986 120.468 152.526 120.202 153.473C119.918 154.414 119.55 155.768 119.031 157.37C118.512 158.972 117.942 160.847 117.265 162.836C116.6 164.832 115.853 166.942 115.112 169.059C114.346 171.163 113.586 173.273 112.833 175.237C112.092 177.201 111.338 179.019 110.73 180.583C110.116 182.147 109.54 183.431 109.167 184.34C108.768 185.242 108.546 185.751 108.546 185.751C108.546 185.751 108.698 185.21 108.964 184.263C109.249 183.323 109.616 181.969 110.135 180.367C110.654 178.765 111.224 176.89 111.902 174.9C112.567 172.905 113.314 170.794 114.054 168.678C114.821 166.574 115.587 164.463 116.34 162.499C117.081 160.535 117.834 158.717 118.442 157.154C119.056 155.59 119.633 154.306 120.006 153.397C120.405 152.494 120.627 151.986 120.627 151.986H120.62Z" fill="#E2A561"/>
<path d="M108.464 150.918C108.464 150.918 108.698 151.452 109.11 152.386C109.496 153.327 110.091 154.656 110.73 156.283C111.37 157.904 112.142 159.791 112.915 161.826C113.7 163.86 114.491 166.046 115.289 168.226C116.068 170.419 116.847 172.606 117.537 174.678C118.24 176.737 118.841 178.689 119.386 180.348C119.93 182.007 120.316 183.412 120.614 184.384C120.893 185.363 121.051 185.929 121.051 185.929C121.051 185.929 120.817 185.395 120.405 184.46C120.019 183.52 119.424 182.191 118.784 180.564C118.145 178.943 117.366 177.062 116.6 175.021C115.815 172.987 115.023 170.801 114.225 168.62C113.453 166.427 112.674 164.241 111.978 162.169C111.275 160.103 110.673 158.158 110.129 156.499C109.584 154.84 109.198 153.435 108.901 152.463C108.622 151.484 108.464 150.918 108.464 150.918Z" fill="#E2A561"/>
<path d="M117.587 154.293H111.307L111.326 149.494L117.613 149.52L117.587 154.293Z" fill="#D6985B"/>
<path d="M104.614 152.278H91.2989V160.395H104.614V152.278Z" fill="#EFBA73"/>
<path d="M104.177 152.278H91.2989V160.008H104.177V152.278Z" fill="#F8F7F5"/>
<path d="M92.8248 153.429H91.913V158.851H92.8248V153.429Z" fill="#D4C8D6"/>
<path d="M96.2058 153.429H95.2941V158.851H96.2058V153.429Z" fill="#D4C8D6"/>
<path d="M94.9648 153.429H94.281V158.851H94.9648V153.429Z" fill="#D4C8D6"/>
<path d="M93.7239 153.429H93.268V158.851H93.7239V153.429Z" fill="#D4C8D6"/>
<path d="M97.0099 153.429H96.7377V158.851H97.0099V153.429Z" fill="#D4C8D6"/>
<path d="M98.4599 153.429H97.5481V158.851H98.4599V153.429Z" fill="#D4C8D6"/>
<path d="M103.569 153.429H99.3336V154.115H103.569V153.429Z" fill="#D4C8D6"/>
<path d="M103.569 154.408H99.3336V155.094H103.569V154.408Z" fill="#D4C8D6"/>
<path d="M103.569 155.921H99.3336V156.162H103.569V155.921Z" fill="#D4C8D6"/>
<path d="M103.569 156.817H99.3336V157.058H103.569V156.817Z" fill="#D4C8D6"/>
<path d="M103.569 157.713H99.3336V157.955H103.569V157.713Z" fill="#D4C8D6"/>
<path d="M103.569 158.609H99.3336V158.851H103.569V158.609Z" fill="#D4C8D6"/>
<path d="M92.179 165.061C93.2427 165.697 93.0274 166.269 92.0397 167.406C91.0519 168.544 90.4188 169.351 90.4188 169.351C90.4188 169.351 98.6118 168.951 99.074 169.815C99.5362 170.673 98.9727 171.951 96.4274 172.097C96.4274 172.097 99.1943 171.792 99.5426 172.58C99.8908 173.369 98.9031 175.009 94.8002 174.939C94.8002 174.939 96.7377 174.78 96.934 175.32C97.1302 175.86 96.8263 177.208 92.4892 176.973C87.7532 176.712 84.6128 174.157 84.6128 174.157L89.6337 167.832L92.179 165.061V165.061Z" fill="#EFBA73"/>
<path d="M59.5968 148.299C60.8631 151.427 64.9533 156.702 69.0435 159.931C74.1467 163.955 77.914 167.495 84.9863 168.398L84.5241 174.004C84.5241 174.004 71.975 173.362 61.9331 167.063C53.3665 161.686 48.9851 153.181 48.9851 153.181L59.5968 148.293V148.299Z" fill="url(#paint9_linear_1_989)"/>
<path d="M82.9159 173.864L82.7133 168.042C82.6626 168.029 82.517 167.966 82.46 167.953C81.0671 168.964 80.2883 172.269 80.2883 172.269C80.2883 172.269 69.3031 170.877 62.8765 166.58C56.45 162.277 52.6764 155.927 52.6764 155.927C57.0452 154.134 60.4389 151.363 60.9771 150.905C60.3756 149.952 59.9007 149.062 59.5904 148.299L48.9788 153.187C48.9788 153.187 53.3602 161.692 61.9268 167.069C69.7969 172.008 79.2056 173.47 82.9096 173.871L82.9159 173.864Z" fill="#D27A84"/>
<path d="M46.0662 150.746L59.3055 144.155C57.3237 140.837 53.4108 125.239 45.9586 128.067C38.5 130.889 41.4949 143.221 46.0662 150.746V150.746Z" fill="#E89207"/>
<path d="M45.1862 150.842C50.5047 147.931 55.6965 145.553 59.831 143.723L62.1294 148.198C58.9446 150.746 53.5628 153.251 47.5225 155.336L45.1862 150.842V150.842Z" fill="#E7DEE8"/>
<path d="M82.8273 167.425C84.1695 167.94 85.4928 168.112 85.8347 168.067C88.437 167.61 91.5205 164.432 92.179 165.061C93.154 166.37 89.697 168.379 89.83 168.735C89.9566 169.091 92.2106 169.154 93.9708 169.237C95.541 169.307 98.8144 168.767 99.074 169.809C99.3336 170.858 95.6487 171.176 94.3823 171.271C93.116 171.366 91.875 171.322 91.6598 171.576C91.4445 171.83 93.0147 171.856 94.6293 171.919C95.9082 171.97 99.4666 171.506 99.5362 172.58C99.5932 173.496 97.4721 173.833 94.7306 173.877C92.7805 173.909 91.6534 173.991 91.6408 174.227C91.6281 174.462 92.6855 174.602 93.8758 174.608C95.0725 174.614 96.8706 174.684 96.9276 175.314C96.9846 175.949 95.1865 176.146 93.5656 176.057C91.9447 175.968 88.0571 175.981 84.4355 174.443C84.4355 174.443 83.758 174.1 80.9278 173.915C80.9278 173.915 81.0101 169.593 82.8209 167.419L82.8273 167.425Z" fill="#FFA70B"/>
<path d="M82.5297 90.9272C78.832 87.4058 67.2896 86.1536 61.8888 92.2938C60.0273 94.4168 59.2295 97.1882 58.9256 99.6799C60.6985 100.824 61.281 103.1 61.281 103.1L58.8053 103.811C58.875 105.076 59.0206 105.884 59.0206 105.884C79.9527 99.4701 87.3163 102.229 87.3163 102.229C87.3163 102.229 85.8854 94.1181 82.5297 90.9272V90.9272Z" fill="#E89207"/>
<path d="M59.2359 99.8705C59.2359 99.8705 57.6277 102.508 57.9949 104.892L58.8053 103.811L60.4389 103.316L59.2359 99.8705V99.8705Z" fill="#212121"/>
<path d="M72.5258 102.235C72.5258 102.235 77.5974 105.706 80.1174 106.386C85.0053 107.695 91.4445 107.307 92.4069 106.468C93.3693 105.636 87.31 102.229 87.31 102.229C87.31 102.229 84.5178 100.506 72.5258 102.235V102.235Z" fill="#E89207"/>
<path d="M74.4949 100.894L87.1137 101.25C86.6199 98.9997 85.1636 93.4316 82.5297 90.9209C80.6112 89.0966 76.578 87.8762 72.3865 87.9906C72.8741 88.0033 79.3766 87.9906 80.7885 92.6752C82.5423 98.4785 74.4949 100.888 74.4949 100.888V100.894Z" fill="#FFA70B"/>
<path d="M29.9904 178.212L37.2084 179.973C37.2084 179.973 34.1186 184.467 29.4459 185.789L29.9968 178.212H29.9904Z" fill="#474557"/>
<path d="M66.8274 179.337L63.9782 179.922C63.9782 179.922 65.8017 182.998 68.214 184.905L66.8274 179.331V179.337Z" fill="#3F3E4F"/>
<path d="M87.31 102.222C87.31 102.222 87.177 101.479 86.9048 100.354C75.565 98.2497 61.2746 103.087 61.2746 103.087L58.799 103.799C58.8686 105.064 59.0143 105.871 59.0143 105.871C79.9464 99.4574 87.31 102.216 87.31 102.216V102.222Z" fill="#FFA70B"/>
<path d="M80.3073 105.623C78.4521 105.127 75.2041 103.106 73.6275 102.076C73.2666 102.121 72.9057 102.172 72.5258 102.229C72.5258 102.229 77.5974 105.699 80.1174 106.379C85.0053 107.689 91.4445 107.301 92.4069 106.462C92.5715 106.322 92.5335 106.106 92.3626 105.852C90.8557 106.583 84.904 106.856 80.3073 105.623V105.623Z" fill="#E89207"/>
<path d="M29.218 191.796C29.0723 201.762 31.2631 218.46 30.4843 224.289C29.7055 230.111 21.8164 256.7 22 260.666C22.1836 264.632 23.3296 267.321 25.7609 268.249C25.9636 268.326 26.1788 268.395 26.4131 268.465C24.4187 267.366 22.5762 264.378 22.8611 260.495C23.3613 253.598 32.4851 231.986 32.9536 225.071C33.2258 221.104 29.7878 197.726 29.275 189.069C29.2496 189.946 29.2306 190.855 29.2116 191.796H29.218Z" fill="#474557"/>
<path d="M55.7662 174.112C53.9744 174.112 52.5181 175.466 52.5181 177.132C52.5181 178.797 53.9744 180.151 55.7662 180.151C57.558 180.151 59.0143 178.797 59.0143 177.132C59.0143 175.466 57.558 174.112 55.7662 174.112ZM55.7662 178.867C54.7405 178.867 53.9047 178.091 53.9047 177.138C53.9047 176.184 54.7405 175.409 55.7662 175.409C56.7919 175.409 57.6277 176.184 57.6277 177.138C57.6277 178.091 56.7919 178.867 55.7662 178.867Z" fill="#A5ADBC"/>
<path d="M72.5891 116.994C72.5891 116.994 75.47 118.304 79.7818 118.164C79.7818 118.164 78.3382 120.904 75.5776 120.408C73.1526 119.969 72.5891 117.001 72.5891 117.001V116.994Z" fill="#4B3C59"/>
<path d="M73.7351 117.795C73.7351 117.795 75.9322 118.634 78.9587 118.533C78.9587 118.533 78.0153 120.103 75.7992 119.798C73.9757 119.55 73.7415 117.795 73.7415 117.795H73.7351Z" fill="#FFF4E9"/>
</g>
<defs>
<linearGradient id="paint0_linear_1_989" x1="293.421" y1="189.278" x2="277.894" y2="162.367" gradientUnits="userSpaceOnUse">
<stop stop-color="#FF9595"/>
<stop offset="0.13" stop-color="#FFA29C"/>
<stop offset="0.33" stop-color="#FFB1A4"/>
<stop offset="0.5" stop-color="#FFB7A7"/>
<stop offset="0.67" stop-color="#FFB0A3"/>
<stop offset="0.91" stop-color="#FF9D99"/>
<stop offset="1" stop-color="#FF9595"/>
</linearGradient>
<linearGradient id="paint1_linear_1_989" x1="248.511" y1="270.232" x2="246.853" y2="260.039" gradientUnits="userSpaceOnUse">
<stop stop-color="#FFB7A7"/>
<stop offset="1" stop-color="#FF9595"/>
</linearGradient>
<linearGradient id="paint2_linear_1_989" x1="258.104" y1="270.182" x2="256.432" y2="259.925" gradientUnits="userSpaceOnUse">
<stop stop-color="#FFB7A7"/>
<stop offset="1" stop-color="#FF9595"/>
</linearGradient>
<linearGradient id="paint3_linear_1_989" x1="291.99" y1="189.806" x2="277.622" y2="164.893" gradientUnits="userSpaceOnUse">
<stop stop-color="#FF9595"/>
<stop offset="0.13" stop-color="#FFA29C"/>
<stop offset="0.33" stop-color="#FFB1A4"/>
<stop offset="0.5" stop-color="#FFB7A7"/>
<stop offset="0.67" stop-color="#FFB0A3"/>
<stop offset="0.91" stop-color="#FF9D99"/>
<stop offset="1" stop-color="#FF9595"/>
</linearGradient>
<linearGradient id="paint4_linear_1_989" x1="258.104" y1="137.042" x2="258.104" y2="121.094" gradientUnits="userSpaceOnUse">
<stop stop-color="#FFB7A7"/>
<stop offset="1" stop-color="#FF9595"/>
</linearGradient>
<linearGradient id="paint5_linear_1_989" x1="252.634" y1="127.758" x2="262.057" y2="97.2299" gradientUnits="userSpaceOnUse">
<stop stop-color="#FFB7A7"/>
<stop offset="1" stop-color="#FF9595"/>
</linearGradient>
<linearGradient id="paint6_linear_1_989" x1="218.316" y1="133.839" x2="235.018" y2="164.848" gradientUnits="userSpaceOnUse">
<stop stop-color="#FFB7A7"/>
<stop offset="1" stop-color="#FF9595"/>
</linearGradient>
<linearGradient id="paint7_linear_1_989" x1="295.776" y1="189.514" x2="276.75" y2="161.354" gradientUnits="userSpaceOnUse">
<stop stop-color="#FF9595"/>
<stop offset="0.13" stop-color="#FFA29C"/>
<stop offset="0.33" stop-color="#FFB1A4"/>
<stop offset="0.5" stop-color="#FFB7A7"/>
<stop offset="0.67" stop-color="#FFB0A3"/>
<stop offset="0.91" stop-color="#FF9D99"/>
<stop offset="1" stop-color="#FF9595"/>
</linearGradient>
<linearGradient id="paint8_linear_1_989" x1="69.8754" y1="124.338" x2="78.0241" y2="83.0677" gradientUnits="userSpaceOnUse">
<stop stop-color="#FFB7A7"/>
<stop offset="1" stop-color="#FF9595"/>
</linearGradient>
<linearGradient id="paint9_linear_1_989" x1="69.512" y1="177.487" x2="62.6662" y2="132.633" gradientUnits="userSpaceOnUse">
<stop stop-color="#FFB7A7"/>
<stop offset="1" stop-color="#FF9595"/>
</linearGradient>
<clipPath id="clip0_1_989">
<rect width="279" height="213" fill="white" transform="translate(22 68)"/>
</clipPath>
</defs>
</svg>
